<?xml version="1.0" encoding="UTF-8"?>
<svg version="1.1" viewBox="0 0 173.89 131.36" xmlns="http://www.w3.org/2000/svg">
<g transform="translate(-113.09 -74.92)">
<path d="m118.2 203.78c-1.8012-1.0982-3.7501-3.234-4.3308-4.7463-3.9301-10.234 7.7645-19.34 16.568-12.901 1.6578 1.2125 1.7579 1.6815 0.645 3.0224-0.96996 1.1687-1.7996 1.3291-3.1465 0.60822-2.5015-1.3388-6.3094-1.2303-7.7607 0.22101-1.7116 1.7116-1.4838 7.3734 0.37143 9.2286 1.8463 1.8463 5.5409 2.0591 7.1862 0.41381 0.87682-0.87682 1.5317-0.84712 2.7 0.12245 2.22 1.8424 1.9255 2.7857-1.408 4.5095-3.9568 2.0462-6.8969 1.9162-10.825-0.47852zm22.163 1.0753c-6.6466-2.8466-8.4323-11.752-3.4702-17.305 2.5817-2.8894 3.5131-3.2658 8.082-3.2658s5.5004 0.37638 8.082 3.2658c6.0018 6.7172 2.2542 16.843-6.582 17.784-2.2 0.23432-4.9504 0.019-6.1119-0.47843zm9.5807-7.3211c1.3749-2.4694 1.3749-3.0306 0-5.5-2.0811-3.7376-7.1068-4.3187-9.3727-1.0837-0.87783 1.2533-1.5961 2.9784-1.5961 3.8337s0.71823 2.5804 1.5961 3.8337c2.2659 3.235 7.2916 2.6539 9.3727-1.0837zm13.452 6.3645c-6.7607-4.1227-6.9801-13.476-0.42031-17.917 6.3262-4.2832 14.952-1.4264 17.074 5.6545 2.9064 9.7008-7.8572 17.626-16.654 12.262zm9.751-4.7695c3.6927-3.3418 1.1508-10.345-3.7548-10.345-3.1042 0-5.4164 2.5613-5.4164 6 0 5.3267 5.3078 7.8414 9.1713 4.345zm10.829-4.345v-11h2.5c2.3109 0 2.4792 0.35955 2.5349 4.75l0.0349 4.75 4.0692-4.75c3.1608-3.6896 5.1262-3.4609 7.043-4.75h2.9739l-3.5779 4.18c-1.9678 2.299-3.5779 4.5403-3.5779 4.9806s1.575 3.2627 3.5 6.272 3.5 5.718 3.5 6.0194-1.3133 0.54804-2.9184 0.54804c-2.3048 0-3.3926-0.78845-5.1737-3.75-1.2404-2.0625-2.3912-3.9266-2.5574-4.1425-0.88499-1.1495-3.3505 2.5408-3.3505 5.0149 0 2.4027-0.86996 4.1816-2.5 2.8776h-2.5zm27 2.5634v-8.4366l-3.25-0.31336c-2.491-0.24017-3.3246-0.83886-3.5696-2.5634-0.31123-2.1914-0.0835-2.25 8.75-2.25 9.0075 0 9.0696 0.0171 9.0696 2.5 0 2.1111-0.46667 2.5-3 2.5h-3v8.5c0 8.4-0.0294 8.5-2.5 8.5-2.4691 0-2.5-0.10422-2.5-8.4366zm14-2.5634v-11h2.5c2.2963 0 2.5 0.36668 2.5 4.5v4.5h9v-4.5c0-4.1333 0.70689-3.0655 2.5-4.5h2.5v11c0 10.998-5.3e-4 11-2.4425 11-2.1586 0-2.4782-0.49394-2.75-4.25-0.30601-4.2293-0.83095-2.5342-4.5575-4.5575l-4.25-0.3075v4.5575c0 4.1947-0.70324 5.9949-2.5 4.5575h-2.5zm22.942 6.25c6.7708-16.818 6.7244-16.736 9.7098-17.04 3.0343-0.30892 2.4388-1.4239 11.182 20.937 0.18334 0.46889-1.0017 0.85253-2.6334 0.85253-2.1257 0-3.115-0.56696-3.4897-2-0.42917-1.6412-1.364-2-5.2102-2s-4.7811 0.35885-5.2102 2c-0.36969 1.4137-1.7284 3.1597-3.3918 2h-2.8688zm12.013-4.5c-0.0248-0.6875-0.61844-2.5947-1.3192-4.2382l-1.274-2.9882-1.1808 3.3874c-1.6324 4.6826-1.5271 5.0889 1.3192 5.0889 1.375 0 2.4797-0.5625 2.4549-1.25zm16.045 0.75v-8.5h-3c-2.5333 0-3-0.38889-3-2.5 0-2.4706 0.1-2.5 8.5-2.5s8.5 0.0294 8.5 2.5c0 2.1111-0.89214 3.9052-3 2.5h-3v8.5c0 8.4-0.0294 8.5-2.5 8.5-2.4706 0-2.5-0.1-2.5-8.5zm-126-28.764c-1.375-0.62086-2.6667-1.2446-2.8705-1.3861-0.46973-0.32623-1.8997-7.8595-3.162-16.657-1.2227-8.5222-0.53986-11.692 2.5184-11.692 4.2863 0 4.8125-1.9961 4.0431-15.336-0.3915-6.7877-1.0262-12.85-1.4104-13.472-0.81257-1.3148-21.578 0.84057-23.065 2.394-0.50321 0.52567 0.22505 6.5441 1.7139 14.164l2.5889 13.25h3.6615c4.8323 0 5.7882 2.1879 6.641 15.2 0.7495 11.437 1.2899 11.116-7.5036 4.457-12.956-9.8108-20.246-28.878-17.266-45.157 5.7967-31.661 40.171-48.665 68.923-34.095 10.996 5.5722 19.826 16.36 23.638 28.88 1.9041 6.2529 2.532 7.2551 4.7089 7.5156 1.3815 0.1653 3.0252-0.31802 3.6527-1.0741 0.96377-1.1613 2.1921-1.1064 7.9144 0.35337 5.7888 1.4768 9.93 1.6468 28.485 1.1698 24.062-0.61863 24.788-0.46183 24.788 5.3498 0 5.9465-2.4452 6.6738-20.213 6.0124-8.4081-0.31303-17.862-0.84465-21.009-1.1814-4.4575-0.47695-7.2086-0.11746-12.451 1.627-4.685 1.5591-6.845 1.8904-7.1115 1.0909-0.21052-0.63156-1.8668-1.1483-3.6807-1.1483-3.0947 0-3.3708 0.28952-4.4808 4.6975-1.8577 7.3776-5.7486 14.746-10.687 20.239-4.8766 5.424-10.15 9.6139-11.014 8.7504-0.67502-0.67503 1.2714-13.822 2.8833-19.475 0.8779-3.079 1.864-4.4495 3.496-4.8592 1.2503-0.3138 3.4504-1.9695 4.8891-3.6793 2.3913-2.8419 2.5748-3.6826 2.1374-9.7958-0.94315-13.182-7.3094-17.815-14.298-10.405-6.6879 7.0912-8.1626 17.258-3.0829 21.253 2.8699 2.2574 3.1029 6.0317 1.0357 16.774-2.6744 13.898-2.7988 14.12-8.9891 16.067-3.0087 0.94636-5.6544 1.5367-5.8792 1.3118-0.22484-0.22484-0.9457-4.4433-1.6019-9.3744-1.656-12.444-0.63874-22.624 3.2207-32.233 1.9561-4.87 3.3024-10.257 3.6061-14.428l0.4846-6.6568-4.1078-2.5932c-5.2572-3.3188-6.9251-3.2613-11.998 0.41311-3.6398 2.6366-4.15 3.4844-4.15 6.8947 0 4.1913 3.1624 15.427 5.9384 21.099 2.1283 4.3484 2.771 23.266 1.069 31.464l-1.1492 5.5357-4.1791-0.0677c-2.2985-0.0372-5.3041-0.57565-6.6791-1.1965zm124.81-46c0.39799-2.0666-2.4888-3.4591-4.0124-1.9355s-0.13109 4.4104 1.9355 4.0124c0.95785-0.18446 1.8925-1.1191 2.0769-2.0769zm-141.21 7.0145c-0.35797-2.8875-0.91704-7.1625-1.2424-9.5-0.35545-2.5538-0.1936-4.25 0.40552-4.25 0.54837 0 1.2934 3.0375 1.6556 6.75 0.36222 3.7125 0.9004 7.9875 1.196 9.5 0.29556 1.5125 0.1096 2.75-0.41324 2.75-0.52285 0-1.2435-2.3625-1.6015-5.25zm31.143 4.6729c-1.0588-1.0676-0.90702-20.627 0.17334-22.333 1.4315-2.2613 2.3695 8.5342 1.4149 16.284-0.46105 3.743-1.1758 6.4651-1.5883 6.0492zm-26.164-6.1729c-0.35446-3.1625-0.89586-7.4375-1.2031-9.5-0.31928-2.1431-0.14242-3.75 0.41274-3.75 0.53427 0 1.2678 3.0375 1.63 6.75 0.36222 3.7125 0.9004 7.9875 1.196 9.5 0.29556 1.5125 0.10348 2.75-0.42685 2.75s-1.2542-2.5875-1.6087-5.75zm6.139 5.0665c-0.26139-0.44909-0.7746-3.5165-1.1405-6.8165s-0.90781-7.2375-1.2043-8.75-0.11224-2.75 0.40951-2.75c0.52174 0 1.4754 4.1072 2.1191 9.127 1.0783 8.408 1.0212 11.26-0.18384 9.1895zm15.763-8.7352c-1.6348-7.7901-1.6747-16.728-0.0817-18.321 0.35259-0.3526 1.2729 7e-3 2.045 0.79939 1.1294 1.1588 1.2015 2.516 0.36857 6.9405-0.56947 3.025-0.78815 8.5375-0.48596 12.25s0.40799 6.75 0.2351 6.75c-0.17288 0-1.1094-3.7884-2.081-8.4187zm7.5977-2.2662c-0.0473-4.5017-0.54562-9.3939-1.1074-10.872-0.72565-1.9086-0.69019-3.0859 0.12245-4.0651 4.386-5.2848 5.6917 7.9527 1.9848 20.122-0.73152 2.4014-0.93101 1.3669-0.99982-5.1849zm-10.928-4.3151c0-1.375 0.22698-1.9375 0.50439-1.25s0.27741 1.8125 0 2.5-0.50439 0.125-0.50439-1.25zm16.094-4.5c0.0111-2.2 0.21589-2.9822 0.45508-1.7383s0.23011 3.0439-0.0202 4c-0.25029 0.95609-0.446-0.0617-0.4349-2.2617zm-16.652-2.1662c0.92042-3.8314 1.3994-4.194 1.3994-1.0595 0 1.4342-0.46804 2.8969-1.0401 3.2504-0.68219 0.42162-0.80584-0.3323-0.35933-2.191zm6.9583-5.8656c-1.8326-1.3861-1.7558-1.4682 1.3724-1.4682 2.832 0 3.1326 0.21799 2.0687 1.5-0.68469 0.825-1.3023 1.4857-1.3724 1.4682-0.0702-0.0175-1.0011-0.6925-2.0687-1.5z" fill="#70716f"/>
</g>
</svg>
